<svg id="Camada_1" data-name="Camada 1" xmlns="http://www.w3.org/2000/svg" viewBox="0 0 41.36 103.9"><defs><style>.cls-1{fill:#00c2ff;}.cls-2{fill:#fff;stroke:#d2062d;stroke-miterlimit:10;stroke-width:5.67px;}.cls-3{fill:#d2062d;}</style></defs><title>scroll</title><path id="Rectangle_4" data-name="Rectangle 4" class="cls-1" d="M23.14,63.21h0a5.1,5.1,0,0,1,5.1,5.1v15.3a5.1,5.1,0,0,1-5.1,5.1h0a5.1,5.1,0,0,1-5.09-5.1V68.31A5.1,5.1,0,0,1,23.14,63.21Z" transform="translate(-2.46 -11.94)"/><path class="cls-2" d="M23.14,14.78A17.85,17.85,0,0,0,5.29,32.62V86.16a17.81,17.81,0,0,0,8.83,15.38l1.05,1.22,7.5,8.73,7.5-8.73.3-.35A17.82,17.82,0,0,0,41,86.16V32.62A17.84,17.84,0,0,0,23.14,14.78Z" transform="translate(-2.46 -11.94)"/><path id="Rectangle_4-2" data-name="Rectangle 4" class="cls-3" d="M23.13,63.05h0a5.1,5.1,0,0,1,5.09,5.1v15.3a5.1,5.1,0,0,1-5.09,5.1h0a5.1,5.1,0,0,1-5.1-5.1V68.15A5.1,5.1,0,0,1,23.13,63.05Z" transform="translate(-2.46 -11.94)"/></svg>